<svg width="138" height="136" viewBox="0 0 138 136" fill="none" xmlns="http://www.w3.org/2000/svg">
<g filter="url(#filter0_d_45_1264)">
<rect x="45" y="41" width="47.4646" height="46" rx="10" fill="white"/>
</g>
<rect x="52.8105" y="48.5698" width="33.045" height="32.0253" rx="16.0127" fill="white"/>
<path d="M63.53 67.0612L62.7771 69.7852L60.0252 69.8416C59.2028 68.3633 58.7363 66.6719 58.7363 64.8745C58.7363 63.1364 59.1725 61.4974 59.9456 60.0542H59.9462L62.3961 60.4895L63.4694 62.8496C63.2448 63.4843 63.1223 64.1656 63.1223 64.8745C63.1224 65.6439 63.2662 66.3811 63.53 67.0612Z" fill="#FBBB00"/>
<path d="M80.1774 62.916C80.3017 63.5501 80.3664 64.2049 80.3664 64.8741C80.3664 65.6245 80.285 66.3565 80.1299 67.0625C79.6034 69.4652 78.2278 71.5632 76.3221 73.0478L76.3215 73.0473L73.2356 72.8947L72.7989 70.2524C74.0634 69.5337 75.0516 68.409 75.5722 67.0625H69.7891V62.916H75.6566H80.1774Z" fill="#518EF8"/>
<path d="M76.3217 73.047L76.3223 73.0476C74.4689 74.4914 72.1145 75.3552 69.5516 75.3552C65.4329 75.3552 61.8521 73.1242 60.0254 69.841L63.5302 67.0605C64.4435 69.4229 66.7949 71.1045 69.5516 71.1045C70.7365 71.1045 71.8466 70.7941 72.7991 70.2522L76.3217 73.047Z" fill="#28B446"/>
<path d="M76.4544 56.8056L72.9508 59.5855C71.965 58.9883 70.7996 58.6433 69.5512 58.6433C66.7321 58.6433 64.3367 60.4021 63.4691 62.8491L59.9459 60.0537H59.9453C61.7453 56.6904 65.3713 54.3926 69.5512 54.3926C72.1753 54.3926 74.5814 55.2985 76.4544 56.8056Z" fill="#F14336"/>
<defs>
<filter id="filter0_d_45_1264" x="0" y="0" width="137.465" height="136" filterUnits="userSpaceOnUse" color-interpolation-filters="sRGB">
<feFlood flood-opacity="0" result="BackgroundImageFix"/>
<feColorMatrix in="SourceAlpha" type="matrix" values="0 0 0 0 0 0 0 0 0 0 0 0 0 0 0 0 0 0 127 0" result="hardAlpha"/>
<feOffset dy="4"/>
<feGaussianBlur stdDeviation="22.5"/>
<feComposite in2="hardAlpha" operator="out"/>
<feColorMatrix type="matrix" values="0 0 0 0 0.945098 0 0 0 0 0.886275 0 0 0 0 1 0 0 0 0.1 0"/>
<feBlend mode="normal" in2="BackgroundImageFix" result="effect1_dropShadow_45_1264"/>
<feBlend mode="normal" in="SourceGraphic" in2="effect1_dropShadow_45_1264" result="shape"/>
</filter>
</defs>
</svg>
